/vscmnt/brussel_pixiu_data/_data_brussel/112/vsc11236/PredSimResults/SUBJ10mtu3D/worker5.mot
version=1
nRows=8
nColumns=50
inDegrees=yes
endheader
                time	         pelvis_tilt	         pelvis_list	     pelvis_rotation	           pelvis_tx	           pelvis_ty	           pelvis_tz	       hip_flexion_r	     hip_adduction_r	      hip_rotation_r	        knee_angle_r	       ankle_angle_r	         mtp_angle_r	       hip_flexion_l	     hip_adduction_l	      hip_rotation_l	        knee_angle_l	       ankle_angle_l	         mtp_angle_l	    lumbar_extension	      lumbar_bending	     lumbar_rotation	 ercspn_r/activation	 intobl_r/activation	 extobl_r/activation	    abd_r/activation	    add_r/activation	hamstrings_r/activation	bifemsh_r/activation	glut_max_r/activation	iliopsoas_r/activation	rect_fem_r/activation	  vasti_r/activation	gastroc_r/activation	 soleus_r/activation	tib_ant_r/activation	 ercspn_l/activation	 intobl_l/activation	 extobl_l/activation	    abd_l/activation	    add_l/activation	hamstrings_l/activation	bifemsh_l/activation	glut_max_l/activation	iliopsoas_l/activation	rect_fem_l/activation	  vasti_l/activation	gastroc_l/activation	 soleus_l/activation	tib_ant_l/activation	
          0.55917325	         -4.66098774	          1.46173452	         -7.57742457	          0.67659964	          0.82132269	          0.01270177	        -16.14100723	         -1.56655646	          0.46491369	         -5.04223478	          8.58738279	         25.82369953	         31.57408419	         -1.50258110	         -6.16156361	         -6.42975086	          3.79234039	          0.26380412	         -6.22161022	          0.21312282	          6.79305686	          0.04892840	          0.01000070	          0.01000192	          0.05520423	          0.01000423	          0.01552048	          0.23493380	          0.01553842	          0.41476440	          0.01001252	          0.01000154	          0.34422936	          0.25310738	          0.02352934	          0.11925304	          0.18025152	          0.01000523	          0.01000392	          0.11231817	          0.13769448	          0.25534554	          0.02746836	          0.11995318	          0.01000673	          0.01000180	          0.01670524	          0.01000171	          0.29654644	
          0.57035672	         -4.70508121	          1.42468418	         -7.70023304	          0.69226435	          0.81982836	          0.01258396	        -16.27372254	         -1.66699480	          0.18033213	         -6.66106665	          7.90518402	         27.51937133	         31.55116611	         -1.40639773	         -5.96969991	         -8.06995380	          3.52511785	          0.26266263	         -6.02272567	         -0.21610490	          7.09334399	          0.08838587	          0.01000106	          0.01000238	          0.04653132	          0.01003257	          0.01357755	          0.19802508	          0.01309876	          0.34960574	          0.01000821	          0.01000195	          0.31288867	          0.24213533	          0.01983277	          0.10052304	          0.15193542	          0.01000525	          0.01000035	          0.16934899	          0.11704015	          0.21524266	          0.05976225	          0.10110783	          0.01000553	          0.01000072	          0.01981293	          0.01358401	          0.31016854	
          0.58154018	         -4.73873203	          1.39770692	         -7.78093640	          0.70826720	          0.81852656	          0.01239082	        -16.30101086	         -1.78365703	         -0.13147835	         -8.50904295	          7.08337594	         29.17718379	         31.35074630	         -1.31814022	         -5.70700378	         -9.61803451	          3.14723289	          0.25232876	         -5.79871038	         -0.66632370	          7.36508774	          0.10717720	          0.01000064	          0.01000266	          0.03922096	          0.01001313	          0.01165636	          0.16691485	          0.01104171	          0.29468180	          0.01000720	          0.01000150	          0.26374337	          0.22560229	          0.01671698	          0.08498907	          0.12806643	          0.01000303	          0.02727618	          0.14274592	          0.10091898	          0.18143003	          0.10140486	          0.08522316	          0.01000219	          0.01000062	          0.01670056	          0.01145027	          0.38485795	
          0.59272365	         -4.76356291	          1.37020494	         -7.81236498	          0.72440172	          0.81755160	          0.01207066	        -16.15615065	         -1.90546906	         -0.47473731	        -10.67052800	          6.11571085	         30.71645672	         31.05417821	         -1.22345367	         -5.52064074	        -10.98128825	          2.64178786	          0.24026910	         -5.57425374	         -1.11461671	          7.60223338	          0.13367045	          0.01000061	          0.01000207	          0.03305911	          0.01000478	          0.01080764	          0.14069219	          0.01000226	          0.24838653	          0.01001180	          0.01000182	          0.22230767	          0.20746382	          0.01409071	          0.10573381	          0.10794657	          0.01000292	          0.08161332	          0.17617200	          0.08506520	          0.15292778	          0.12136781	          0.07183410	          0.01000306	          0.01000149	          0.01407724	          0.01000106	          0.42926280	
          0.60390711	         -4.77860031	          1.33925732	         -7.79845163	          0.74050899	          0.81701758	          0.01164036	        -15.78819488	         -2.03058408	         -0.85234505	        -13.20728371	          5.00866562	         32.00273791	         30.75531441	         -1.12519223	         -5.40678281	        -12.36233992	          2.21254366	          0.22551441	         -5.36353415	         -1.55760339	          7.80189587	          0.16568827	          0.01000119	          0.01000246	          0.02786532	          0.01794698	          0.02035143	          0.11858932	          0.01000805	          0.20936403	          0.01000839	          0.01000305	          0.18738160	          0.17799772	          0.01187710	          0.10839813	          0.09098758	          0.01000407	          0.11687497	          0.23026577	          0.07266532	          0.12890317	          0.12990305	          0.06054854	          0.01000496	          0.01250133	          0.01186651	          0.01000485	          0.45173194	
          0.61509058	         -4.78389365	          1.30809744	         -7.74506687	          0.75648885	          0.81699406	          0.01111422	        -15.15839052	         -2.16595934	         -1.27327322	        -16.16382664	          3.79349501	         32.83989754	         30.48901542	         -1.02192182	         -5.34136008	        -13.82717711	          1.95531636	          0.21096373	         -5.17100518	         -1.99617820	          7.96610971	          0.18536223	          0.01000107	          0.01000186	          0.02348752	          0.08530102	          0.02322333	          0.09995915	          0.01000155	          0.17647217	          0.01000380	          0.01000120	          0.15794263	          0.15003341	          0.01001141	          0.10671450	          0.07669294	          0.01000295	          0.13790338	          0.25779196	          0.06700479	          0.10865317	          0.13018180	          0.05103603	          0.01000323	          0.04678026	          0.01000526	          0.01000251	          0.45810133	
          0.62627404	         -4.78126876	          1.27269020	         -7.65298847	          0.77226704	          0.81755859	          0.01051850	        -14.22991890	         -2.31090580	         -1.76354812	        -19.57981410	          2.48721608	         33.01854770	         30.19479327	         -0.91200876	         -5.30075506	        -15.25593492	          1.89358470	          0.19595648	         -5.00002594	         -2.42545607	          8.09374725	          0.19401612	          0.01000138	          0.01000211	          0.01979749	          0.14768682	          0.02535274	          0.08425624	          0.01000105	          0.14874777	          0.01000320	          0.01000095	          0.13312874	          0.12646217	          0.01000068	          0.10000580	          0.06464407	          0.01000312	          0.14762881	          0.27121383	          0.06526511	          0.09158484	          0.12201852	          0.04301800	          0.01000302	          0.07915470	          0.01000477	          0.01000308	          0.44454532	
          0.63745751	         -4.77300913	          1.22855778	         -7.52197788	          0.78779346	          0.81873767	          0.00987888	        -12.98448122	         -2.47057705	         -2.32690481	        -23.43639772	          0.97874108	         32.52843287	         29.80272600	         -0.79154565	         -5.25684083	        -16.52007731	          2.04797470	          0.18530118	         -4.85333586	         -2.84128153	          8.18307942	          0.19275633	          0.01000169	          0.01000240	          0.01668721	          0.20413319	          0.02695524	          0.07102133	          0.01000078	          0.12537906	          0.01000267	          0.01000066	          0.11221332	          0.10659408	          0.01000074	          0.08934631	          0.05448816	          0.01000331	          0.14874592	          0.27167953	          0.06549726	          0.07719833	          0.10996552	          0.03625966	          0.01000260	          0.10239107	          0.01000317	          0.01000196	          0.41765455	
